<svg xmlns="http://www.w3.org/2000/svg" viewBox="0 0 128 128" width="128" height="128" role="img">
<rect x="0" y="0" width="128" height="128" rx="26" fill="#000000"/><g transform="translate(64,64) scale(0.6042)"><polygon points="0.00,-90.00 70.00,-45.00 70.00,45.00 0.00,90.00 -70.00,45.00 -70.00,-45.00" fill="none" stroke="#00FFFF" stroke-width="4.14"/><circle cx="0" cy="0" r="16.00" fill="#39FF14" opacity="0.95"/><circle cx="0" cy="0" r="16.00" fill="none" stroke="#FFFFFF" stroke-width="3.31" opacity="0.4"/><circle cx="0" cy="0" r="10.00" fill="none" stroke="#39FF14" stroke-width="2.48" opacity="0.7"/><circle cx="0" cy="0" r="5.00" fill="none" stroke="#39FF14" stroke-width="1.66" opacity="0.5"/><line x1="0.00" y1="-16.00" x2="0.00" y2="-60.00" stroke="#39FF14" stroke-width="3.31" opacity="0.6"/><line x1="12.63" y1="-9.82" x2="45.00" y2="-35.00" stroke="#39FF14" stroke-width="3.31" opacity="0.6"/><line x1="12.63" y1="9.82" x2="45.00" y2="35.00" stroke="#39FF14" stroke-width="3.31" opacity="0.6"/><line x1="0.00" y1="16.00" x2="0.00" y2="60.00" stroke="#39FF14" stroke-width="3.31" opacity="0.6"/><line x1="-12.63" y1="9.82" x2="-45.00" y2="35.00" stroke="#39FF14" stroke-width="3.31" opacity="0.6"/><line x1="-12.63" y1="-9.82" x2="-45.00" y2="-35.00" stroke="#39FF14" stroke-width="3.31" opacity="0.6"/><circle cx="0.00" cy="-60.00" r="5.00" fill="#00FFFF"/><circle cx="45.00" cy="-35.00" r="5.00" fill="#00FFFF"/><circle cx="45.00" cy="35.00" r="5.00" fill="#00FFFF"/><circle cx="0.00" cy="60.00" r="5.00" fill="#00FFFF"/><circle cx="-45.00" cy="35.00" r="5.00" fill="#00FFFF"/><circle cx="-45.00" cy="-35.00" r="5.00" fill="#00FFFF"/><circle cx="0.00" cy="-90.00" r="6.00" fill="#39FF14"/><circle cx="70.00" cy="-45.00" r="6.00" fill="#39FF14"/><circle cx="70.00" cy="45.00" r="6.00" fill="#39FF14"/><circle cx="0.00" cy="90.00" r="6.00" fill="#39FF14"/><circle cx="-70.00" cy="45.00" r="6.00" fill="#39FF14"/><circle cx="-70.00" cy="-45.00" r="6.00" fill="#39FF14"/></g>
</svg>
